<svg width="333" height="78" viewBox="0 0 333 78" fill="none" xmlns="http://www.w3.org/2000/svg">
<g filter="url(#filter0_d_114_3270)">
<circle cx="35" cy="35" r="35" fill="white"/>
<circle cx="35" cy="35" r="34.5" stroke="#F77F00"/>
</g>
<path d="M34.8555 44.082H31.418V50H25.5195V44.082H13.332V39.8828L25.8516 21.4453H31.418V39.3945H34.8555V44.082ZM25.5195 39.3945V34.5508C25.5195 33.7435 25.5521 32.5716 25.6172 31.0352C25.6823 29.4987 25.7344 28.6068 25.7734 28.3594H25.6172C25.1354 29.4271 24.556 30.4688 23.8789 31.4844L18.6445 39.3945H25.5195ZM57.707 44.082H54.2695V50H48.3711V44.082H36.1836V39.8828L48.7031 21.4453H54.2695V39.3945H57.707V44.082ZM48.3711 39.3945V34.5508C48.3711 33.7435 48.4036 32.5716 48.4688 31.0352C48.5339 29.4987 48.5859 28.6068 48.625 28.3594H48.4688C47.987 29.4271 47.4076 30.4688 46.7305 31.4844L41.4961 39.3945H48.3711Z" fill="black"/>
<path d="M97.8242 33.4414H98.8203C99.7513 33.4414 100.448 33.2591 100.91 32.8945C101.372 32.5234 101.604 31.9863 101.604 31.2832C101.604 30.5736 101.408 30.0495 101.018 29.7109C100.633 29.3724 100.028 29.2031 99.2012 29.2031H97.8242V33.4414ZM104.66 31.1758C104.66 32.7122 104.178 33.8874 103.215 34.7012C102.258 35.515 100.894 35.9219 99.123 35.9219H97.8242V41H94.7969V26.7227H99.3574C101.089 26.7227 102.404 27.097 103.303 27.8457C104.208 28.5879 104.66 29.6979 104.66 31.1758ZM111.643 31.9961C111.011 31.9961 110.516 32.1979 110.158 32.6016C109.8 32.9987 109.595 33.5651 109.543 34.3008H113.723C113.71 33.5651 113.518 32.9987 113.146 32.6016C112.775 32.1979 112.274 31.9961 111.643 31.9961ZM112.062 41.1953C110.305 41.1953 108.931 40.7103 107.941 39.7402C106.952 38.7702 106.457 37.3965 106.457 35.6191C106.457 33.7897 106.913 32.377 107.824 31.3809C108.742 30.3783 110.008 29.877 111.623 29.877C113.166 29.877 114.367 30.3164 115.227 31.1953C116.086 32.0742 116.516 33.2884 116.516 34.8379V36.2832H109.475C109.507 37.1296 109.758 37.7904 110.227 38.2656C110.695 38.7409 111.353 38.9785 112.199 38.9785C112.857 38.9785 113.479 38.9102 114.064 38.7734C114.65 38.6367 115.262 38.4186 115.9 38.1191V40.4238C115.38 40.6842 114.823 40.8763 114.23 41C113.638 41.1302 112.915 41.1953 112.062 41.1953ZM121.311 35.5215C121.311 36.6022 121.486 37.4193 121.838 37.9727C122.196 38.526 122.775 38.8027 123.576 38.8027C124.37 38.8027 124.94 38.5293 125.285 37.9824C125.637 37.429 125.812 36.6087 125.812 35.5215C125.812 34.4408 125.637 33.6302 125.285 33.0898C124.934 32.5495 124.357 32.2793 123.557 32.2793C122.762 32.2793 122.189 32.5495 121.838 33.0898C121.486 33.6237 121.311 34.4342 121.311 35.5215ZM128.859 35.5215C128.859 37.2988 128.391 38.6888 127.453 39.6914C126.516 40.694 125.21 41.1953 123.537 41.1953C122.489 41.1953 121.564 40.9674 120.764 40.5117C119.963 40.0495 119.348 39.3887 118.918 38.5293C118.488 37.6699 118.273 36.6673 118.273 35.5215C118.273 33.7376 118.739 32.3509 119.67 31.3613C120.601 30.3717 121.91 29.877 123.596 29.877C124.644 29.877 125.568 30.1048 126.369 30.5605C127.17 31.0163 127.785 31.6706 128.215 32.5234C128.645 33.3763 128.859 34.3757 128.859 35.5215ZM137.316 41.1953C136.034 41.1953 135.028 40.7298 134.299 39.7988H134.143C134.247 40.7103 134.299 41.2376 134.299 41.3809V45.8047H131.32V30.082H133.742L134.162 31.498H134.299C134.995 30.4173 136.027 29.877 137.395 29.877C138.684 29.877 139.693 30.375 140.422 31.3711C141.151 32.3672 141.516 33.7507 141.516 35.5215C141.516 36.6868 141.343 37.6992 140.998 38.5586C140.66 39.418 140.174 40.0723 139.543 40.5215C138.911 40.9707 138.169 41.1953 137.316 41.1953ZM136.438 32.2598C135.702 32.2598 135.165 32.4876 134.826 32.9434C134.488 33.3926 134.312 34.138 134.299 35.1797V35.502C134.299 36.6738 134.471 37.5137 134.816 38.0215C135.168 38.5293 135.721 38.7832 136.477 38.7832C137.811 38.7832 138.479 37.6829 138.479 35.4824C138.479 34.4082 138.312 33.6042 137.98 33.0703C137.655 32.5299 137.141 32.2598 136.438 32.2598ZM146.955 41H143.977V25.8047H146.955V41ZM154.611 31.9961C153.98 31.9961 153.485 32.1979 153.127 32.6016C152.769 32.9987 152.564 33.5651 152.512 34.3008H156.691C156.678 33.5651 156.486 32.9987 156.115 32.6016C155.744 32.1979 155.243 31.9961 154.611 31.9961ZM155.031 41.1953C153.273 41.1953 151.9 40.7103 150.91 39.7402C149.921 38.7702 149.426 37.3965 149.426 35.6191C149.426 33.7897 149.882 32.377 150.793 31.3809C151.711 30.3783 152.977 29.877 154.592 29.877C156.135 29.877 157.336 30.3164 158.195 31.1953C159.055 32.0742 159.484 33.2884 159.484 34.8379V36.2832H152.443C152.476 37.1296 152.727 37.7904 153.195 38.2656C153.664 38.7409 154.322 38.9785 155.168 38.9785C155.826 38.9785 156.447 38.9102 157.033 38.7734C157.619 38.6367 158.231 38.4186 158.869 38.1191V40.4238C158.348 40.6842 157.792 40.8763 157.199 41C156.607 41.1302 155.884 41.1953 155.031 41.1953ZM177.18 41H174.201V34.623C174.201 33.0475 173.615 32.2598 172.443 32.2598C171.61 32.2598 171.008 32.543 170.637 33.1094C170.266 33.6758 170.08 34.5938 170.08 35.8633V41H167.102V25.8047H170.08V28.9004C170.08 29.1413 170.057 29.7077 170.012 30.5996L169.943 31.4785H170.1C170.764 30.4108 171.818 29.877 173.264 29.877C174.546 29.877 175.52 30.222 176.184 30.9121C176.848 31.6022 177.18 32.5918 177.18 33.8809V41ZM184.768 31.9961C184.136 31.9961 183.641 32.1979 183.283 32.6016C182.925 32.9987 182.72 33.5651 182.668 34.3008H186.848C186.835 33.5651 186.643 32.9987 186.271 32.6016C185.9 32.1979 185.399 31.9961 184.768 31.9961ZM185.188 41.1953C183.43 41.1953 182.056 40.7103 181.066 39.7402C180.077 38.7702 179.582 37.3965 179.582 35.6191C179.582 33.7897 180.038 32.377 180.949 31.3809C181.867 30.3783 183.133 29.877 184.748 29.877C186.291 29.877 187.492 30.3164 188.352 31.1953C189.211 32.0742 189.641 33.2884 189.641 34.8379V36.2832H182.6C182.632 37.1296 182.883 37.7904 183.352 38.2656C183.82 38.7409 184.478 38.9785 185.324 38.9785C185.982 38.9785 186.604 38.9102 187.189 38.7734C187.775 38.6367 188.387 38.4186 189.025 38.1191V40.4238C188.505 40.6842 187.948 40.8763 187.355 41C186.763 41.1302 186.04 41.1953 185.188 41.1953ZM195.041 41H192.062V25.8047H195.041V41ZM204.172 41.1953C202.889 41.1953 201.883 40.7298 201.154 39.7988H200.998C201.102 40.7103 201.154 41.2376 201.154 41.3809V45.8047H198.176V30.082H200.598L201.018 31.498H201.154C201.851 30.4173 202.883 29.877 204.25 29.877C205.539 29.877 206.548 30.375 207.277 31.3711C208.007 32.3672 208.371 33.7507 208.371 35.5215C208.371 36.6868 208.199 37.6992 207.854 38.5586C207.515 39.418 207.03 40.0723 206.398 40.5215C205.767 40.9707 205.025 41.1953 204.172 41.1953ZM203.293 32.2598C202.557 32.2598 202.02 32.4876 201.682 32.9434C201.343 33.3926 201.167 34.138 201.154 35.1797V35.502C201.154 36.6738 201.327 37.5137 201.672 38.0215C202.023 38.5293 202.577 38.7832 203.332 38.7832C204.667 38.7832 205.334 37.6829 205.334 35.4824C205.334 34.4082 205.168 33.6042 204.836 33.0703C204.51 32.5299 203.996 32.2598 203.293 32.2598ZM215.354 31.9961C214.722 31.9961 214.227 32.1979 213.869 32.6016C213.511 32.9987 213.306 33.5651 213.254 34.3008H217.434C217.421 33.5651 217.229 32.9987 216.857 32.6016C216.486 32.1979 215.985 31.9961 215.354 31.9961ZM215.773 41.1953C214.016 41.1953 212.642 40.7103 211.652 39.7402C210.663 38.7702 210.168 37.3965 210.168 35.6191C210.168 33.7897 210.624 32.377 211.535 31.3809C212.453 30.3783 213.719 29.877 215.334 29.877C216.877 29.877 218.078 30.3164 218.938 31.1953C219.797 32.0742 220.227 33.2884 220.227 34.8379V36.2832H213.186C213.218 37.1296 213.469 37.7904 213.938 38.2656C214.406 38.7409 215.064 38.9785 215.91 38.9785C216.568 38.9785 217.189 38.9102 217.775 38.7734C218.361 38.6367 218.973 38.4186 219.611 38.1191V40.4238C219.09 40.6842 218.534 40.8763 217.941 41C217.349 41.1302 216.626 41.1953 215.773 41.1953ZM226.105 41.1953C224.823 41.1953 223.814 40.6973 223.078 39.7012C222.349 38.7051 221.984 37.3249 221.984 35.5605C221.984 33.7702 222.355 32.377 223.098 31.3809C223.846 30.3783 224.875 29.877 226.184 29.877C227.557 29.877 228.605 30.4108 229.328 31.4785H229.426C229.276 30.6647 229.201 29.9388 229.201 29.3008V25.8047H232.189V41H229.904L229.328 39.584H229.201C228.524 40.6582 227.492 41.1953 226.105 41.1953ZM227.15 38.8223C227.912 38.8223 228.469 38.6009 228.82 38.1582C229.178 37.7155 229.374 36.9635 229.406 35.9023V35.5801C229.406 34.4082 229.224 33.5684 228.859 33.0605C228.501 32.5527 227.915 32.2988 227.102 32.2988C226.438 32.2988 225.92 32.582 225.549 33.1484C225.184 33.7083 225.002 34.5254 225.002 35.5996C225.002 36.6738 225.188 37.4811 225.559 38.0215C225.93 38.5553 226.46 38.8223 227.15 38.8223ZM248.117 37.7578C248.117 38.8776 247.727 39.7305 246.945 40.3164C246.171 40.9023 245.008 41.1953 243.459 41.1953C242.665 41.1953 241.988 41.14 241.428 41.0293C240.868 40.9251 240.344 40.7689 239.855 40.5605V38.0996C240.409 38.36 241.031 38.5781 241.721 38.7539C242.417 38.9297 243.029 39.0176 243.557 39.0176C244.637 39.0176 245.178 38.7051 245.178 38.0801C245.178 37.8457 245.106 37.6569 244.963 37.5137C244.82 37.3639 244.572 37.1979 244.221 37.0156C243.869 36.8268 243.4 36.6087 242.814 36.3613C241.975 36.0098 241.356 35.6842 240.959 35.3848C240.568 35.0853 240.282 34.7435 240.1 34.3594C239.924 33.9688 239.836 33.4902 239.836 32.9238C239.836 31.9538 240.21 31.2051 240.959 30.6777C241.714 30.1439 242.782 29.877 244.162 29.877C245.477 29.877 246.757 30.1634 248 30.7363L247.102 32.8848C246.555 32.6504 246.044 32.4583 245.568 32.3086C245.093 32.1589 244.608 32.084 244.113 32.084C243.234 32.084 242.795 32.3216 242.795 32.7969C242.795 33.0638 242.935 33.2949 243.215 33.4902C243.501 33.6855 244.123 33.9753 245.08 34.3594C245.933 34.7044 246.558 35.0267 246.955 35.3262C247.352 35.6257 247.645 35.9707 247.834 36.3613C248.023 36.752 248.117 37.2174 248.117 37.7578ZM252.814 35.5215C252.814 36.6022 252.99 37.4193 253.342 37.9727C253.7 38.526 254.279 38.8027 255.08 38.8027C255.874 38.8027 256.444 38.5293 256.789 37.9824C257.141 37.429 257.316 36.6087 257.316 35.5215C257.316 34.4408 257.141 33.6302 256.789 33.0898C256.438 32.5495 255.861 32.2793 255.061 32.2793C254.266 32.2793 253.693 32.5495 253.342 33.0898C252.99 33.6237 252.814 34.4342 252.814 35.5215ZM260.363 35.5215C260.363 37.2988 259.895 38.6888 258.957 39.6914C258.02 40.694 256.714 41.1953 255.041 41.1953C253.993 41.1953 253.068 40.9674 252.268 40.5117C251.467 40.0495 250.852 39.3887 250.422 38.5293C249.992 37.6699 249.777 36.6673 249.777 35.5215C249.777 33.7376 250.243 32.3509 251.174 31.3613C252.105 30.3717 253.413 29.877 255.1 29.877C256.148 29.877 257.072 30.1048 257.873 30.5605C258.674 31.0163 259.289 31.6706 259.719 32.5234C260.148 33.3763 260.363 34.3757 260.363 35.5215ZM274.055 32.3184H271.477V41H268.498V32.3184H266.857V30.8828L268.498 30.082V29.2812C268.498 28.0378 268.804 27.1296 269.416 26.5566C270.028 25.9837 271.008 25.6973 272.355 25.6973C273.384 25.6973 274.299 25.8503 275.1 26.1562L274.338 28.3438C273.739 28.1549 273.186 28.0605 272.678 28.0605C272.255 28.0605 271.949 28.1875 271.76 28.4414C271.571 28.6888 271.477 29.0078 271.477 29.3984V30.082H274.055V32.3184ZM282.707 41L282.131 39.5156H282.053C281.551 40.1471 281.034 40.5866 280.5 40.834C279.973 41.0749 279.283 41.1953 278.43 41.1953C277.382 41.1953 276.555 40.8958 275.949 40.2969C275.35 39.6979 275.051 38.8451 275.051 37.7383C275.051 36.5794 275.454 35.7266 276.262 35.1797C277.076 34.6263 278.299 34.3203 279.934 34.2617L281.828 34.2031V33.7246C281.828 32.6178 281.262 32.0645 280.129 32.0645C279.257 32.0645 278.231 32.3281 277.053 32.8555L276.066 30.8438C277.323 30.1862 278.716 29.8574 280.246 29.8574C281.711 29.8574 282.834 30.1764 283.615 30.8145C284.396 31.4525 284.787 32.4225 284.787 33.7246V41H282.707ZM281.828 35.9414L280.676 35.9805C279.81 36.0065 279.165 36.1628 278.742 36.4492C278.319 36.7357 278.107 37.1719 278.107 37.7578C278.107 38.5977 278.589 39.0176 279.553 39.0176C280.243 39.0176 280.793 38.819 281.203 38.4219C281.62 38.0247 281.828 37.4974 281.828 36.8398V35.9414ZM293.957 29.877C294.361 29.877 294.696 29.9062 294.963 29.9648L294.738 32.7578C294.497 32.6927 294.204 32.6602 293.859 32.6602C292.909 32.6602 292.167 32.9043 291.633 33.3926C291.105 33.8809 290.842 34.5645 290.842 35.4434V41H287.863V30.082H290.119L290.559 31.918H290.705C291.044 31.306 291.499 30.8145 292.072 30.4434C292.652 30.0658 293.28 29.877 293.957 29.877Z" fill="black"/>
<defs>
<filter id="filter0_d_114_3270" x="0" y="0" width="78" height="78" filterUnits="userSpaceOnUse" color-interpolation-filters="sRGB">
<feFlood flood-opacity="0" result="BackgroundImageFix"/>
<feColorMatrix in="SourceAlpha" type="matrix" values="0 0 0 0 0 0 0 0 0 0 0 0 0 0 0 0 0 0 127 0" result="hardAlpha"/>
<feOffset dx="4" dy="4"/>
<feGaussianBlur stdDeviation="2"/>
<feComposite in2="hardAlpha" operator="out"/>
<feColorMatrix type="matrix" values="0 0 0 0 0 0 0 0 0 0 0 0 0 0 0 0 0 0 0.12 0"/>
<feBlend mode="normal" in2="BackgroundImageFix" result="effect1_dropShadow_114_3270"/>
<feBlend mode="normal" in="SourceGraphic" in2="effect1_dropShadow_114_3270" result="shape"/>
</filter>
</defs>
</svg>
