<svg width="336" height="270" viewBox="0 0 336 270" fill="none" xmlns="http://www.w3.org/2000/svg">
<path d="M184.872 121.45H172.807C172.159 121.45 171.539 121.769 171.081 122.337C170.623 122.905 170.366 123.675 170.366 124.478V138.329C170.366 140.4 171.029 142.386 172.209 143.851C173.39 145.315 174.991 146.138 176.66 146.138H181.019C182.688 146.138 184.289 145.315 185.469 143.851C186.649 142.386 187.312 140.4 187.312 138.329V124.478C187.312 123.675 187.055 122.905 186.598 122.337C186.14 121.769 185.519 121.45 184.872 121.45Z" fill="#DA5B4F"/>
<path d="M169.769 138.368C171.356 138.368 172.694 137.616 173.455 137.071L172.142 134.247C171.614 134.625 170.231 135.45 168.82 134.941C167.349 134.411 166.245 132.652 165.804 131.144C165.499 130.101 165.486 129.126 165.772 128.599C166.052 128.081 166.734 127.712 167.597 127.61C168.712 127.479 169.989 127.801 171.192 128.516L172.328 125.575C170.7 124.608 168.932 124.178 167.349 124.364C165.661 124.563 164.326 125.421 163.59 126.781C162.823 128.198 162.73 130.194 163.334 132.257C164.149 135.043 166.014 137.326 168.086 138.072C168.633 138.269 169.2 138.369 169.769 138.368Z" fill="#DA5B4F"/>
<path d="M180.907 119.005C180.989 119.005 181.07 118.979 181.143 118.93C181.215 118.881 181.276 118.81 181.321 118.724C181.365 118.638 181.392 118.539 181.398 118.437C181.404 118.335 181.389 118.233 181.355 118.14C180.919 116.953 180.816 115.894 181.047 114.992C181.212 114.35 181.505 113.924 181.815 113.474C182.201 112.914 182.6 112.335 182.646 111.422C182.701 110.347 182.226 109.247 181.233 108.154C181.136 108.046 181.007 107.991 180.877 108.001C180.747 108.011 180.624 108.084 180.538 108.206C180.451 108.327 180.407 108.486 180.414 108.648C180.422 108.81 180.481 108.961 180.579 109.069C181.334 109.899 181.698 110.665 181.663 111.344C181.638 111.827 181.431 112.15 181.066 112.68C180.74 113.154 180.334 113.744 180.109 114.621C179.801 115.821 179.918 117.175 180.458 118.647C180.497 118.753 180.56 118.844 180.64 118.907C180.719 118.971 180.812 119.005 180.907 119.005Z" fill="#2A3E3D"/>
<path d="M177.227 119.005C177.31 119.005 177.391 118.979 177.463 118.93C177.536 118.881 177.597 118.81 177.642 118.724C177.686 118.638 177.713 118.539 177.719 118.437C177.725 118.335 177.71 118.233 177.676 118.14C177.24 116.953 177.137 115.894 177.368 114.992C177.533 114.35 177.826 113.924 178.136 113.474C178.522 112.914 178.92 112.335 178.967 111.422C179.022 110.347 178.547 109.247 177.554 108.154C177.456 108.046 177.328 107.991 177.198 108.001C177.067 108.011 176.945 108.084 176.859 108.206C176.772 108.327 176.727 108.486 176.735 108.648C176.743 108.81 176.802 108.961 176.9 109.069C177.654 109.899 178.019 110.665 177.984 111.344C177.959 111.827 177.752 112.15 177.387 112.68C177.061 113.154 176.654 113.744 176.429 114.621C176.121 115.821 176.239 117.175 176.779 118.647C176.818 118.753 176.881 118.844 176.961 118.907C177.04 118.971 177.133 119.005 177.227 119.005Z" fill="#2A3E3D"/>
<path d="M170.498 120.195H187.792C188.719 120.195 189.609 120.652 190.265 121.466C190.921 122.28 191.29 123.384 191.29 124.536V144.394C191.29 147.362 190.339 150.21 188.648 152.309C186.956 154.408 184.661 155.588 182.269 155.588H176.021C173.628 155.588 171.334 154.408 169.642 152.309C167.95 150.21 167 147.362 167 144.394V124.536C167 123.384 167.369 122.28 168.025 121.466C168.68 120.652 169.57 120.195 170.498 120.195Z" fill="#4C9D80"/>
<path d="M192.145 144.449C189.871 144.449 187.953 143.371 186.862 142.59L188.744 138.541C189.502 139.083 191.483 140.266 193.507 139.536C195.614 138.777 197.196 136.255 197.829 134.093C198.267 132.597 198.284 131.199 197.875 130.443C197.474 129.702 196.496 129.172 195.258 129.026C193.66 128.838 191.831 129.299 190.106 130.324L188.479 126.109C190.811 124.722 193.345 124.106 195.614 124.373C198.034 124.658 199.948 125.888 201.003 127.837C202.102 129.868 202.236 132.73 201.37 135.688C200.201 139.682 197.528 142.954 194.558 144.025C193.774 144.307 192.962 144.45 192.145 144.449Z" fill="#4C9D80"/>
<path d="M176.182 116.689C176.063 116.689 175.947 116.652 175.843 116.582C175.74 116.511 175.652 116.41 175.588 116.286C175.524 116.163 175.486 116.022 175.477 115.875C175.469 115.729 175.49 115.582 175.539 115.449C176.163 113.748 176.311 112.229 175.98 110.936C175.744 110.016 175.324 109.405 174.879 108.76C174.326 107.957 173.755 107.127 173.688 105.818C173.609 104.277 174.29 102.701 175.713 101.133C175.853 100.979 176.037 100.9 176.224 100.914C176.411 100.928 176.586 101.033 176.71 101.207C176.834 101.381 176.898 101.609 176.887 101.841C176.876 102.073 176.791 102.29 176.651 102.444C175.569 103.635 175.047 104.732 175.097 105.707C175.133 106.399 175.43 106.862 175.952 107.621C176.42 108.301 177.003 109.147 177.325 110.405C177.767 112.125 177.598 114.067 176.824 116.176C176.768 116.329 176.678 116.459 176.564 116.55C176.45 116.641 176.317 116.689 176.182 116.689Z" fill="#2A3E3D"/>
<path d="M181.455 116.689C181.337 116.689 181.221 116.652 181.117 116.582C181.013 116.511 180.925 116.41 180.861 116.286C180.797 116.163 180.759 116.022 180.751 115.875C180.742 115.729 180.764 115.582 180.813 115.449C181.437 113.748 181.585 112.229 181.253 110.936C181.017 110.016 180.597 109.405 180.152 108.76C179.6 107.957 179.029 107.127 178.961 105.818C178.883 104.277 179.564 102.701 180.987 101.133C181.127 100.979 181.311 100.9 181.497 100.914C181.684 100.928 181.859 101.033 181.984 101.207C182.108 101.381 182.172 101.609 182.161 101.841C182.149 102.073 182.064 102.29 181.924 102.444C180.843 103.635 180.321 104.732 180.371 105.707C180.406 106.399 180.703 106.862 181.226 107.621C181.694 108.301 182.276 109.147 182.599 110.405C183.04 112.125 182.872 114.067 182.098 116.176C182.042 116.329 181.951 116.459 181.837 116.55C181.723 116.641 181.591 116.689 181.455 116.689Z" fill="#2A3E3D"/>
<path d="M199.468 150.863H157.011C156.482 150.863 155.974 150.596 155.6 150.121C155.226 149.646 155.015 149.003 155.015 148.331C155.015 147.66 155.226 147.016 155.6 146.541C155.974 146.067 156.482 145.8 157.011 145.8H199.468C199.997 145.8 200.505 146.067 200.879 146.541C201.253 147.016 201.464 147.66 201.464 148.331C201.464 149.003 201.253 149.646 200.879 150.121C200.505 150.596 199.997 150.863 199.468 150.863Z" fill="#F5D264"/>
<path d="M90.7674 177.003C90.5104 177.003 90.2627 176.883 90.0732 176.666C89.8837 176.45 89.7663 176.153 89.7441 175.833C89.7219 175.514 89.7965 175.196 89.9532 174.942C90.1099 174.688 90.3373 174.517 90.5905 174.461C92.3218 174.082 93.8087 172.075 93.9769 169.893C94.145 167.712 92.9895 165.39 91.3475 164.607C90.617 164.279 89.837 164.157 89.0641 164.251C88.0299 164.353 87.0267 164.741 86.127 165.385C86.0101 165.469 85.8811 165.523 85.7474 165.545C85.6136 165.566 85.4777 165.555 85.3474 165.512C85.2172 165.468 85.0951 165.393 84.9882 165.29C84.8812 165.188 84.7915 165.06 84.7242 164.914C84.6569 164.768 84.6133 164.607 84.5958 164.441C84.5783 164.274 84.5874 164.105 84.6224 163.942C84.6575 163.78 84.7179 163.628 84.8001 163.494C84.8823 163.361 84.9848 163.249 85.1017 163.165C86.2666 162.331 87.5653 161.83 88.9044 161.697C89.9812 161.572 91.0667 161.749 92.0816 162.215C94.5833 163.407 96.2773 166.813 96.0219 170.136C95.7665 173.459 93.5843 176.403 90.947 176.982C90.8877 176.995 90.8277 177.002 90.7674 177.003Z" fill="#2A3E3D"/>
<path d="M80.1915 217.737C79.9594 217.738 79.734 217.64 79.5522 217.46C79.3703 217.28 79.2427 217.029 79.1901 216.747C79.1374 216.465 79.163 216.17 79.2625 215.908C79.362 215.647 79.5296 215.435 79.7379 215.308C79.9708 215.165 80.2055 214.983 80.454 214.791C82.1074 213.512 83.6001 212.156 85.1804 210.721L85.3559 210.561C87.3976 208.707 89.5258 206.939 91.5841 205.23C94.0585 203.176 96.617 201.051 99.019 198.777C103.214 194.807 107.514 190.403 111.8 185.689C119.243 177.502 126.767 168.292 135.48 156.705C135.666 156.458 135.923 156.314 136.195 156.304C136.467 156.293 136.731 156.417 136.929 156.649C137.127 156.881 137.244 157.201 137.253 157.54C137.262 157.879 137.164 158.208 136.978 158.456C128.22 170.103 120.652 179.367 113.16 187.609C108.837 192.365 104.497 196.809 100.262 200.818C97.8093 203.14 95.2237 205.286 92.7234 207.362C90.6829 209.056 88.5726 210.808 86.5662 212.631L86.3908 212.79C84.7786 214.255 83.2559 215.638 81.5375 216.967C81.2485 217.198 80.9504 217.412 80.6443 217.606C80.5034 217.692 80.3485 217.737 80.1915 217.737Z" fill="#2A3E3D"/>
<path d="M74.9828 259.701C70.9758 259.701 67.3714 258.872 64.2295 257.224C59.2477 254.612 55.3691 249.684 53.8527 244.042C53.1046 241.258 52.8256 238.12 52.9735 234.166C53.4883 220.45 58.8408 207.005 67.2916 198.199C67.3053 198.185 67.319 198.172 67.3327 198.159L69.8866 195.762C70.0699 191.635 71.6107 187.859 74.4722 184.528C76.7471 181.881 79.8695 179.506 83.753 177.472C89.4945 174.464 95.6449 173.012 101.618 171.654C104.073 163.175 111.464 159.012 119.122 155.784C125.431 153.124 131.999 151.478 138.35 149.886C139.009 149.721 139.667 149.556 140.326 149.39C140.46 149.354 140.597 149.351 140.731 149.382C140.865 149.412 140.993 149.476 141.107 149.569C141.221 149.661 141.319 149.781 141.396 149.922C141.472 150.062 141.525 150.22 141.552 150.387C141.579 150.553 141.58 150.725 141.553 150.891C141.526 151.058 141.473 151.216 141.397 151.357C141.321 151.498 141.223 151.618 141.109 151.711C140.996 151.805 140.868 151.869 140.734 151.9C140.074 152.066 139.415 152.232 138.755 152.397C132.467 153.973 125.964 155.602 119.78 158.21C112.418 161.313 105.336 165.272 103.38 173.156C103.325 173.379 103.221 173.58 103.081 173.735C102.94 173.891 102.768 173.995 102.583 174.037C96.532 175.411 90.2751 176.832 84.5487 179.832C80.8897 181.749 77.9711 183.959 75.8741 186.4C73.2909 189.407 71.9615 192.783 71.9231 196.433C71.921 196.629 71.8831 196.821 71.8121 196.996C71.7412 197.17 71.6392 197.322 71.5139 197.439L68.589 200.184C60.5837 208.538 55.5133 221.285 55.0255 234.284C54.8894 237.912 55.1351 240.755 55.8005 243.228C57.1316 248.182 60.5799 252.532 65.0261 254.863C68.8366 256.862 73.4286 257.549 78.6747 256.906C85.525 256.066 92.1677 253.038 98.9824 247.648C105.106 242.805 110.796 236.551 116.298 230.502C117.84 228.807 119.434 227.054 121.013 225.36C121.116 225.251 121.234 225.167 121.362 225.114C121.49 225.062 121.626 225.041 121.76 225.054C121.895 225.066 122.026 225.112 122.146 225.188C122.267 225.263 122.374 225.368 122.462 225.495C122.55 225.623 122.617 225.771 122.659 225.93C122.701 226.09 122.718 226.259 122.708 226.426C122.698 226.594 122.661 226.757 122.6 226.908C122.54 227.058 122.456 227.191 122.353 227.301C120.784 228.985 119.194 230.732 117.656 232.423C106.442 244.75 94.847 257.497 78.8752 259.454C77.5396 259.618 76.2421 259.7 74.9828 259.701Z" fill="#2A3E3D"/>
<path d="M194.568 252.04C194.54 252.04 194.512 252.039 194.483 252.036C185.472 251.114 178.208 242.887 171.798 235.63L171.102 234.842C160.746 223.14 149.674 212.464 137.986 202.909C134.795 200.302 131.642 197.89 128.146 197.019C123.459 195.851 118.477 197.601 114.177 199.333C93.7894 207.543 78.161 217.534 66.3982 229.875C66.295 229.983 66.1757 230.065 66.0471 230.116C65.9186 230.166 65.7832 230.185 65.6488 230.171C65.5144 230.156 65.3836 230.109 65.2639 230.032C65.1442 229.954 65.0378 229.848 64.951 229.719C64.8641 229.591 64.7985 229.442 64.7577 229.282C64.717 229.122 64.7019 228.953 64.7135 228.785C64.7251 228.618 64.763 228.455 64.8251 228.305C64.8872 228.156 64.9723 228.024 65.0755 227.915C77.0456 215.357 92.9 205.21 113.545 196.895C118.092 195.064 123.377 193.218 128.549 194.507C132.405 195.468 135.745 198.016 139.111 200.767C150.889 210.394 162.046 221.153 172.481 232.944L173.179 233.734C179.647 241.059 186.337 248.633 194.652 249.484C194.916 249.511 195.161 249.664 195.337 249.912C195.513 250.159 195.605 250.482 195.594 250.812C195.583 251.142 195.471 251.454 195.279 251.683C195.088 251.912 194.834 252.04 194.569 252.04H194.568Z" fill="#2A3E3D"/>
<path d="M184.268 258.037C184.233 258.037 184.198 258.035 184.163 258.031C171.338 256.404 160.325 253.516 150.494 249.201C138.829 244.081 128.979 236.883 121.217 227.807C121.117 227.692 121.037 227.554 120.981 227.401C120.925 227.247 120.893 227.081 120.889 226.913C120.884 226.744 120.906 226.576 120.954 226.418C121.001 226.26 121.073 226.115 121.166 225.992C121.259 225.869 121.37 225.77 121.493 225.701C121.617 225.631 121.75 225.593 121.885 225.588C122.021 225.583 122.155 225.612 122.282 225.672C122.408 225.732 122.524 225.823 122.622 225.939C130.175 234.771 139.781 241.785 151.177 246.786C160.852 251.032 171.71 253.877 184.371 255.483C184.633 255.515 184.875 255.673 185.047 255.922C185.219 256.171 185.308 256.493 185.295 256.821C185.281 257.149 185.167 257.459 184.976 257.685C184.785 257.912 184.531 258.038 184.268 258.037Z" fill="#2A3E3D"/>
<path d="M214.816 248.007C210.445 248.007 205.515 245.268 201.869 242.213C185.779 228.73 169.178 216.569 149.201 202.457C144.529 199.156 139.165 195.885 134.645 198.867C134.404 199.026 134.123 199.059 133.862 198.959C133.602 198.859 133.384 198.634 133.257 198.334C133.129 198.034 133.103 197.683 133.183 197.359C133.263 197.034 133.443 196.762 133.684 196.604C136.163 194.968 138.956 194.698 142.222 195.779C145.019 196.704 147.716 198.465 150.214 200.229C170.232 214.37 186.871 226.56 203.015 240.088C207.073 243.488 213.335 246.787 217.631 244.895C217.888 244.782 218.17 244.801 218.416 244.947C218.662 245.094 218.851 245.356 218.941 245.676C219.032 245.997 219.017 246.349 218.899 246.655C218.782 246.961 218.572 247.197 218.315 247.31C217.189 247.788 216.006 248.024 214.816 248.007Z" fill="#2A3E3D"/>
<path d="M35.1377 259.875C31.367 259.88 27.6114 259.279 23.9636 258.088C19.2852 256.545 15.577 254.339 12.627 251.341C10.8561 249.543 9.22915 247.327 7.65154 244.567C0.0181974 231.214 -1.45903 212.696 3.88869 197.389C6.47202 189.995 10.6438 183.325 15.9536 178.099C21.2167 172.919 27.384 169.363 33.7892 167.813C38.3316 166.714 42.9054 166.535 48.3755 166.601C52.7467 166.655 57.6415 166.994 61.4562 170.055C62.2512 165.925 63.7427 162.052 65.8313 158.696C68.3605 154.638 71.5998 151.656 75.1984 150.075C83.0179 146.638 92.233 150.513 96.1776 158.897C96.251 159.042 96.3003 159.204 96.3225 159.374C96.3447 159.543 96.3393 159.716 96.3067 159.883C96.2742 160.05 96.215 160.207 96.1328 160.344C96.0506 160.482 95.9471 160.598 95.8283 160.684C95.7096 160.771 95.578 160.827 95.4415 160.85C95.305 160.872 95.1662 160.859 95.0336 160.813C94.901 160.767 94.7771 160.689 94.6693 160.582C94.5616 160.475 94.4722 160.342 94.4065 160.191C92.7183 156.605 89.8515 153.846 86.3338 152.425C82.8704 151.026 79.1587 151.049 75.8821 152.489C72.6551 153.908 69.7405 156.597 67.4534 160.267C65.2309 163.837 63.7535 168.038 63.1533 172.494C63.1234 172.718 63.0463 172.928 62.9299 173.102C62.8135 173.277 62.662 173.41 62.4909 173.487C62.3198 173.565 62.1353 173.584 61.9562 173.543C61.7772 173.503 61.61 173.404 61.4718 173.256C58.0379 169.585 52.9004 169.219 48.3545 169.163C43.0089 169.096 38.5527 169.27 34.1796 170.328C28.095 171.8 22.2325 175.182 17.2258 180.11C12.1814 185.075 8.22068 191.404 5.77196 198.414C0.706348 212.911 2.10086 230.445 9.3246 243.081C10.794 245.651 12.2988 247.704 13.9249 249.356C16.6435 252.119 20.099 254.165 24.489 255.613C29.1594 257.134 34.005 257.641 38.8135 257.113C44.8643 256.441 48.1729 253.775 52.5088 248.765C52.6077 248.65 52.7237 248.561 52.8502 248.503C52.9767 248.444 53.1112 248.418 53.246 248.424C53.3808 248.43 53.5133 248.47 53.6358 248.54C53.7584 248.61 53.8687 248.71 53.9604 248.833C54.0522 248.956 54.1235 249.101 54.1704 249.259C54.2173 249.416 54.2388 249.584 54.2337 249.752C54.2286 249.92 54.197 250.085 54.1407 250.238C54.0845 250.391 54.0046 250.528 53.9057 250.643C49.3317 255.928 45.601 258.931 38.996 259.664C37.7186 259.805 36.429 259.875 35.1377 259.875Z" fill="#DA5B4F"/>
<path d="M96.6605 259.29C94.1703 259.305 91.6924 258.854 89.31 257.95C89.052 257.848 88.8369 257.622 88.7116 257.323C88.5862 257.024 88.5608 256.675 88.6408 256.352C88.7208 256.03 88.8998 255.759 89.1388 255.601C89.3778 255.442 89.6574 255.407 89.9169 255.504C96.2451 257.943 103.792 256.719 111.168 252.055C118.097 247.694 124.684 242.538 130.844 236.652C131.061 236.445 131.334 236.354 131.604 236.399C131.874 236.444 132.119 236.62 132.285 236.89C132.451 237.16 132.523 237.5 132.488 237.837C132.452 238.174 132.31 238.479 132.094 238.686C125.833 244.667 119.139 249.908 112.097 254.34C106.913 257.617 101.623 259.29 96.6605 259.29Z" fill="#2A3E3D"/>
<path d="M74.5703 206.544C74.3094 206.545 74.0582 206.421 73.8681 206.198C72.6507 204.755 71.6823 203.017 71.022 201.092C70.3618 199.166 70.0236 197.093 70.0281 194.998C70.0308 194.661 70.1401 194.338 70.3325 194.101C70.5248 193.864 70.7845 193.73 71.0552 193.73H71.0653C71.2002 193.732 71.3335 193.767 71.4577 193.833C71.5818 193.899 71.6943 193.994 71.7887 194.114C71.8832 194.234 71.9577 194.376 72.0081 194.532C72.0585 194.688 72.0838 194.855 72.0824 195.023C72.0787 196.764 72.3597 198.487 72.9084 200.087C73.457 201.687 74.2617 203.131 75.2732 204.33C75.4235 204.506 75.5279 204.734 75.5729 204.984C75.618 205.235 75.6015 205.497 75.5258 205.735C75.45 205.974 75.3184 206.179 75.148 206.323C74.9777 206.468 74.7764 206.545 74.5705 206.545L74.5703 206.544Z" fill="#2A3E3D"/>
<path d="M198.345 151.444C198.063 151.398 197.799 151.231 197.602 150.977C197.406 150.723 197.293 150.399 197.284 150.069C197.276 149.739 197.373 149.426 197.556 149.191C197.74 148.957 197.997 148.818 198.277 148.801C204.759 148.405 214.55 147.316 224.382 144.389C234.001 141.525 241.684 137.511 247.218 132.457C250.742 129.237 253.435 125.095 256.341 120.407C260.251 114.101 263.628 107.8 266.377 101.679C266.518 101.386 266.754 101.179 267.036 101.099C267.319 101.02 267.625 101.076 267.889 101.255C268.154 101.434 268.356 101.721 268.452 102.056C268.548 102.391 268.531 102.748 268.405 103.049C265.61 109.272 262.181 115.672 258.214 122.071C255.215 126.907 252.429 131.187 248.696 134.598C242.936 139.858 234.995 144.021 225.093 146.969C215.091 149.947 205.145 151.053 198.564 151.455C198.492 151.46 198.418 151.456 198.345 151.444Z" fill="#2A3E3D"/>
<path d="M253.552 250.881C253.323 250.843 253.104 250.729 252.922 250.551C252.739 250.374 252.602 250.142 252.526 249.883C252.45 249.624 252.439 249.351 252.495 249.097C252.55 248.843 252.67 248.619 252.839 248.453C258.947 242.462 263.825 234.046 266.945 224.113C267.79 221.426 268.747 217.862 268.655 214.134C268.565 210.504 267.448 207.177 265.51 204.767C265.046 204.188 265.046 203.482 265.512 202.666C265.651 202.424 265.853 202.098 266.133 201.671C266.616 200.931 267.314 199.909 268.269 198.545C270.007 196.058 272.255 192.918 274.238 190.149C276.349 187.201 278.342 184.418 278.7 183.836C284.503 174.408 288.175 165.571 289.925 156.819C291.976 146.563 291.235 136.495 287.72 126.892C285.655 121.247 282.754 112.698 280.668 104.027C279.261 98.1788 279.258 92.2544 279.255 86.525C279.254 83.9303 279.252 81.247 279.118 78.6322C278.964 75.6401 278.382 69.82 276.219 64.4607C274.106 59.2254 271.094 55.988 267.266 54.8378C263.38 53.6709 259.219 54.5479 255.844 57.2429C250.057 61.8656 246.47 70.0954 244.276 75.8837C240.862 84.8885 238.747 94.7849 236.702 104.355C235.892 108.141 235.056 112.057 234.152 115.854C233.977 116.588 233.76 117.502 233.167 118.247C232.628 118.925 231.926 119.278 231.306 119.589L231.277 119.604C220.436 125.049 211.236 133.497 204.672 144.035C204.585 144.177 204.474 144.295 204.345 144.383C204.216 144.471 204.072 144.527 203.92 144.548C203.768 144.568 203.612 144.552 203.46 144.502C203.309 144.451 203.166 144.367 203.038 144.254C202.911 144.14 202.802 144 202.719 143.841C202.635 143.682 202.578 143.507 202.551 143.327C202.524 143.147 202.528 142.966 202.561 142.792C202.595 142.619 202.658 142.458 202.748 142.319C209.533 131.426 219.034 122.698 230.223 117.078L230.252 117.063C230.72 116.828 231.163 116.606 231.401 116.307C231.645 116 231.773 115.462 231.897 114.941C232.793 111.176 233.626 107.278 234.432 103.508C236.499 93.8325 238.637 83.8273 242.127 74.6227C244.426 68.5591 248.203 59.9228 254.43 54.9478C258.325 51.8365 263.158 50.8324 267.686 52.1918C272.285 53.5738 275.863 57.3609 278.32 63.448C280.661 69.2482 281.286 75.4753 281.45 78.6712C281.589 81.3676 281.59 84.092 281.592 86.7262C281.595 92.523 281.598 97.998 282.914 103.471C284.964 111.991 287.822 120.413 289.859 125.978C293.58 136.148 294.369 146.796 292.203 157.625C290.387 166.708 286.602 175.839 280.631 185.539C280.248 186.162 278.65 188.397 276.076 191.993C273.381 195.756 269.098 201.737 267.78 203.807C269.76 206.653 270.893 210.321 270.991 214.259C271.095 218.441 270.06 222.314 269.147 225.22C265.899 235.559 260.805 244.335 254.417 250.6C254.301 250.715 254.165 250.799 254.016 250.847C253.867 250.895 253.709 250.907 253.552 250.881Z" fill="#2A3E3D"/>
<path d="M236.099 257.633C235.824 257.593 235.561 257.461 235.349 257.257C235.137 257.053 234.986 256.788 234.917 256.499C234.849 256.21 234.867 255.913 234.968 255.649C235.07 255.385 235.25 255.168 235.482 255.03L243.534 250.242C239.743 215.52 242.177 180.844 250.706 148.074C250.796 147.726 251.016 147.441 251.317 147.282C251.617 147.123 251.974 147.102 252.309 147.225C252.644 147.347 252.929 147.603 253.101 147.936C253.274 148.269 253.32 148.651 253.23 148.999C244.716 181.711 242.338 216.339 246.227 250.993C246.257 251.255 246.216 251.515 246.111 251.743C246.005 251.972 245.839 252.158 245.631 252.282L236.884 257.483C236.651 257.622 236.376 257.675 236.099 257.633Z" fill="#2A3E3D"/>
<path d="M288.002 248.451C287.724 248.406 287.461 248.253 287.258 248.017C287.055 247.782 286.924 247.479 286.888 247.16C285.198 232.155 283.094 213.48 272.666 199.541C272.518 199.343 272.417 199.107 272.374 198.857C272.331 198.607 272.348 198.354 272.423 198.125L280.175 174.285C280.227 174.117 280.309 173.966 280.415 173.839C280.521 173.712 280.65 173.613 280.794 173.547C280.938 173.481 281.094 173.449 281.253 173.454C281.413 173.459 281.572 173.5 281.722 173.574C281.871 173.649 282.009 173.756 282.127 173.89C282.244 174.023 282.339 174.179 282.406 174.351C282.472 174.522 282.51 174.704 282.515 174.886C282.521 175.069 282.495 175.248 282.439 175.414L274.932 198.502C285.448 213.038 287.568 231.85 289.276 247.01C289.299 247.214 289.282 247.418 289.228 247.606C289.173 247.795 289.081 247.964 288.96 248.102C288.838 248.24 288.689 248.343 288.523 248.403C288.358 248.463 288.18 248.48 288.002 248.451L288.002 248.451Z" fill="#2A3E3D"/>
<path d="M283.359 253.769C283.209 253.744 283.062 253.685 282.928 253.596C282.793 253.506 282.672 253.387 282.574 253.245L264.147 226.938C264.047 226.797 263.971 226.636 263.922 226.465C263.874 226.294 263.854 226.116 263.863 225.941C263.873 225.766 263.912 225.597 263.979 225.445C264.046 225.293 264.138 225.16 264.251 225.054C264.365 224.948 264.496 224.871 264.639 224.827C264.782 224.783 264.932 224.774 265.082 224.799C265.233 224.824 265.379 224.884 265.514 224.974C265.648 225.065 265.769 225.184 265.867 225.326L284.294 251.633C284.443 251.846 284.538 252.1 284.568 252.365C284.597 252.631 284.559 252.894 284.459 253.123C284.359 253.352 284.201 253.535 284.005 253.65C283.81 253.765 283.585 253.807 283.359 253.77L283.359 253.769Z" fill="#2A3E3D"/>
<path d="M255.57 56.2573C255.529 56.2506 255.489 56.2415 255.449 56.2299C255.192 56.1564 254.934 56.0912 254.662 56.0222C253.276 55.6709 251.705 55.2726 250.481 53.6878C248.726 51.4149 247.304 47.6989 250.505 42.9028C252.086 40.5616 254.07 38.6437 256.344 37.2587C256.609 37.0961 256.927 37.0688 257.228 37.1829C257.528 37.2969 257.786 37.543 257.945 37.8668C258.105 38.1907 258.152 38.5658 258.077 38.9098C258.001 39.2537 257.81 39.5383 257.544 39.7008C255.536 40.9227 253.783 42.6153 252.386 44.6818C249.963 48.3132 251.097 50.5635 252.16 51.9405C252.828 52.8045 253.783 53.0468 254.992 53.3533C255.267 53.423 255.552 53.4954 255.841 53.5779C256.136 53.6619 256.401 53.8733 256.581 54.1685C256.76 54.4637 256.841 54.8201 256.806 55.164C256.771 55.508 256.624 55.8132 256.394 56.0166C256.164 56.2201 255.869 56.3061 255.57 56.2571L255.57 56.2573Z" fill="#2A3E3D"/>
<path d="M251.678 149.297C251.453 149.26 251.237 149.148 251.056 148.975C245.621 143.779 245.97 139.093 246.307 134.562C246.347 134.032 246.388 133.484 246.418 132.944C246.438 132.585 246.581 132.26 246.814 132.042C247.047 131.824 247.353 131.73 247.662 131.78C247.972 131.831 248.261 132.022 248.466 132.312C248.67 132.602 248.774 132.966 248.754 133.326C248.722 133.894 248.68 134.456 248.639 135C248.318 139.309 248.065 142.713 252.455 146.91C252.658 147.103 252.806 147.364 252.878 147.652C252.95 147.94 252.941 148.241 252.854 148.51C252.766 148.779 252.605 149 252.393 149.142C252.181 149.284 251.93 149.338 251.678 149.297Z" fill="#2A3E3D"/>
<path d="M287.006 173.189C286.773 173.151 286.55 173.031 286.366 172.846C286.182 172.661 286.046 172.419 285.976 172.152C285.906 171.885 285.905 171.605 285.973 171.349C286.041 171.093 286.176 170.874 286.358 170.719C302.131 157.352 313.37 142.188 319.763 125.649C326.824 107.383 327.814 87.6759 322.706 67.077C317.851 47.4997 311.59 39.0268 307.304 34.3568C303.224 29.9127 298.021 26.505 292.654 24.7615C288.344 23.3619 284.211 23.1059 280.505 23.9869C281.356 27.4905 280.683 31.0769 278.603 33.3208C277.736 34.2569 276.788 34.769 275.787 34.8432C274.477 34.9398 273.18 34.2373 272.224 32.9167C271.202 31.5036 270.772 29.656 271.101 28.095C271.577 25.8404 273.212 24.0276 275.96 22.7068C276.41 22.4907 276.867 22.2923 277.333 22.1117C275.909 19.4793 273.381 17.2614 270.158 15.8295C263.254 12.7615 255.165 14.3714 250.49 19.7446C245.871 25.0526 244.937 33.6857 248.219 40.7384C248.296 40.9001 248.346 41.0757 248.365 41.2551C248.385 41.4345 248.375 41.6141 248.335 41.7835C248.295 41.953 248.226 42.1089 248.132 42.2423C248.039 42.3757 247.922 42.4839 247.789 42.5607C247.656 42.6375 247.509 42.6814 247.357 42.6898C247.205 42.6982 247.051 42.6709 246.904 42.6096C246.756 42.5483 246.619 42.4542 246.499 42.3326C246.379 42.211 246.278 42.0645 246.204 41.9014C242.423 33.7768 243.494 23.8387 248.807 17.7331C254.063 11.6917 263.121 9.86539 270.833 13.2928C274.809 15.0591 277.914 17.9356 279.576 21.3928L279.576 21.3939C283.713 20.3407 288.322 20.5872 293.113 22.1427C298.86 24.0095 304.435 27.6619 308.809 32.4271C318.226 42.6864 322.517 56.7863 324.926 66.4996C330.194 87.7443 329.171 108.073 321.885 126.923C315.341 143.856 303.874 159.347 287.805 172.965C287.579 173.157 287.294 173.237 287.006 173.189ZM278.298 24.6654C277.848 24.8369 277.406 25.027 276.972 25.2355C275.531 25.928 273.733 27.1324 273.353 28.9318C273.206 29.6266 273.443 30.5572 273.943 31.2477C274.197 31.5998 274.734 32.1819 275.469 32.1279C275.96 32.0914 276.464 31.7979 276.967 31.2555C278.389 29.7205 278.858 27.1652 278.298 24.6654Z" fill="#4C9D80"/>
<path d="M264.186 44.2552C264.121 44.2444 264.056 44.2273 263.992 44.2039C259.423 42.5198 256.128 37.0989 256.648 32.12C256.685 31.7695 256.84 31.4608 257.079 31.2621C257.319 31.0633 257.623 30.9906 257.924 31.0601C258.226 31.1295 258.501 31.3353 258.688 31.6323C258.876 31.9293 258.961 32.293 258.924 32.6436C258.546 36.2602 261.112 40.3788 264.526 41.6373C264.806 41.74 265.05 41.9597 265.21 42.253C265.371 42.5462 265.436 42.8915 265.394 43.2207C265.351 43.5498 265.203 43.8388 264.979 44.0303C264.756 44.2219 264.473 44.3021 264.186 44.2552Z" fill="#4C9D80"/>
<path d="M201.28 144.639C201.083 144.607 200.892 144.517 200.728 144.377C200.564 144.237 200.432 144.053 200.344 143.842C200.256 143.632 200.217 143.403 200.23 143.178C200.242 142.953 200.306 142.74 200.416 142.561C201.085 141.464 202.381 140.841 203.97 140.854C204.619 140.874 205.27 140.943 205.918 141.06C206.363 141.131 206.782 141.197 207.194 141.227C207.342 141.238 207.489 141.282 207.626 141.357C207.763 141.432 207.888 141.536 207.994 141.664C208.1 141.791 208.184 141.94 208.242 142.101C208.301 142.262 208.331 142.432 208.333 142.602C208.335 142.772 208.307 142.938 208.252 143.09C208.197 143.243 208.115 143.379 208.012 143.492C207.909 143.604 207.785 143.69 207.649 143.745C207.513 143.8 207.367 143.823 207.219 143.812C206.725 143.776 206.244 143.7 205.778 143.626C205.228 143.525 204.675 143.465 204.123 143.445C203.264 143.438 202.562 143.709 202.292 144.152C202.182 144.332 202.031 144.472 201.853 144.557C201.675 144.643 201.477 144.671 201.28 144.639Z" fill="#2A3E3D"/>
<path d="M111.547 217.231C98.808 215.035 85.4769 220.895 73.1739 216.176C67.2313 213.874 62.0391 209.256 58.3616 203.003C55.7576 198.55 54.0127 193.41 52.2945 188.348C50.7382 183.736 49.176 179.124 47.6078 174.512C46.1799 170.302 44.5624 165.811 41.3985 163.498C37.574 160.698 32.449 162.074 29.0095 165.561C25.5701 169.047 23.5349 174.235 22.0567 179.445C16.6679 198.436 18.6646 218.991 23.7156 238.129C25.2561 243.97 27.4483 248.04 31.1218 252.15C36.0691 257.684 41.3956 259.356 48.0078 260.267C60.9626 262.049 101.501 264.219 110.219 258.791C117.922 253.995 120.324 249.619 122.069 243.295C123.521 238.026 122.822 229.879 121.121 224.477C119.708 219.969 115.051 217.832 111.547 217.231Z" fill="#F5D264"/>
</svg>
