<svg width="32" height="31" viewBox="0 0 32 31" fill="none" xmlns="http://www.w3.org/2000/svg">
<path d="M15.5432 2.48407C13.0246 2.48407 10.5054 3.53938 8.58942 5.64968L5.26616 9.30924L1.70748 10.6655C0.88169 10.9799 0.260068 11.7444 0.064433 12.6809V12.6823L0.0631939 12.6836C0.0210564 12.8879 0 13.0967 0 13.3058C0 14.0386 0.262452 14.7519 0.743458 15.2816L4.28851 19.1854C3.60125 20.0064 3.17209 21.0976 3.17209 22.3005C3.17209 24.8447 5.06544 26.9289 7.37511 26.9289C8.46691 26.9289 9.45801 26.4564 10.204 25.6995L13.7478 29.6033C14.2289 30.1341 14.8785 30.422 15.5432 30.422C15.7331 30.422 15.9234 30.3981 16.1083 30.3524H16.1095L16.112 30.351C16.9624 30.1356 17.6567 29.4511 17.9421 28.5417V28.5403L19.1738 24.6229L22.497 20.9633C26.3285 16.7435 26.3287 9.8689 22.4958 5.64968C20.5798 3.53938 18.0619 2.48407 15.5432 2.48407ZM15.5432 4.56628C17.5708 4.56628 19.5978 5.42177 21.1501 7.13152C24.2553 10.5496 24.2554 16.0628 21.1514 19.4815L17.5184 23.4808L16.143 27.8567C16.0719 28.0835 15.8999 28.2524 15.687 28.307L15.6857 28.3084C15.6354 28.3204 15.589 28.3261 15.5432 28.3261C15.3756 28.3261 15.215 28.2556 15.0947 28.1228V28.1214L8.5919 20.9606L2.08912 13.7998C1.9687 13.6672 1.90325 13.4882 1.90325 13.3058C1.90325 13.2545 1.90859 13.2034 1.91936 13.1503C1.96853 12.9149 2.12296 12.7253 2.3295 12.6468L6.30329 11.1322L9.93508 7.13152C11.4874 5.42177 13.5157 4.56628 15.5432 4.56628ZM5.63294 20.6659L7.24624 22.4424L8.8583 24.219C8.46006 24.5999 7.94818 24.833 7.37511 24.833C6.09396 24.833 5.07534 23.712 5.07534 22.3005C5.07534 21.6694 5.28671 21.1046 5.63294 20.6659Z" fill="black"/>
<ellipse cx="24.2344" cy="7.989" rx="7.31621" ry="7.989" fill="#FF0000"/>
<path d="M25.4805 12.4841H24.1036V6.95282C24.1036 6.29266 24.1192 5.76923 24.1505 5.38251C24.0606 5.47626 23.9493 5.57977 23.8165 5.69305C23.6876 5.80634 23.2501 6.16571 22.504 6.77118L21.8126 5.89813L24.3321 3.91766H25.4805V12.4841Z" fill="white"/>
</svg>
