<svg width="333" height="78" viewBox="0 0 333 78" fill="none" xmlns="http://www.w3.org/2000/svg">
<g filter="url(#filter0_d_114_3274)">
<circle cx="35" cy="35" r="35" fill="white"/>
<circle cx="35" cy="35" r="34.5" stroke="#F77F00"/>
</g>
<path d="M25.1719 50H19.1367V33.4766L19.1953 30.7617L19.293 27.793C18.2904 28.7956 17.5938 29.4531 17.2031 29.7656L13.9219 32.4023L11.0117 28.7695L20.2109 21.4453H25.1719V50ZM53.0625 50H33.1016V45.8008L40.2695 38.5547C42.3919 36.3802 43.7786 34.8763 44.4297 34.043C45.0807 33.1966 45.5495 32.4154 45.8359 31.6992C46.1224 30.9831 46.2656 30.2409 46.2656 29.4727C46.2656 28.3268 45.9466 27.474 45.3086 26.9141C44.6836 26.3542 43.8438 26.0742 42.7891 26.0742C41.6823 26.0742 40.6081 26.3281 39.5664 26.8359C38.5247 27.3438 37.4375 28.0664 36.3047 29.0039L33.0234 25.1172C34.4297 23.9193 35.5951 23.0729 36.5195 22.5781C37.444 22.0833 38.4531 21.7057 39.5469 21.4453C40.6406 21.1719 41.8646 21.0352 43.2188 21.0352C45.0026 21.0352 46.5781 21.3607 47.9453 22.0117C49.3125 22.6628 50.3737 23.5742 51.1289 24.7461C51.8841 25.918 52.2617 27.2591 52.2617 28.7695C52.2617 30.0846 52.0273 31.3216 51.5586 32.4805C51.1029 33.6263 50.3867 34.8047 49.4102 36.0156C48.4466 37.2266 46.7409 38.9518 44.293 41.1914L40.6211 44.6484V44.9219H53.0625V50Z" fill="black"/>
<path d="M97.8242 21.4414H98.8203C99.7513 21.4414 100.448 21.2591 100.91 20.8945C101.372 20.5234 101.604 19.9863 101.604 19.2832C101.604 18.5736 101.408 18.0495 101.018 17.7109C100.633 17.3724 100.028 17.2031 99.2012 17.2031H97.8242V21.4414ZM104.66 19.1758C104.66 20.7122 104.178 21.8874 103.215 22.7012C102.258 23.515 100.894 23.9219 99.123 23.9219H97.8242V29H94.7969V14.7227H99.3574C101.089 14.7227 102.404 15.097 103.303 15.8457C104.208 16.5879 104.66 17.6979 104.66 19.1758ZM109.494 23.5215C109.494 24.6022 109.67 25.4193 110.021 25.9727C110.38 26.526 110.959 26.8027 111.76 26.8027C112.554 26.8027 113.124 26.5293 113.469 25.9824C113.82 25.429 113.996 24.6087 113.996 23.5215C113.996 22.4408 113.82 21.6302 113.469 21.0898C113.117 20.5495 112.541 20.2793 111.74 20.2793C110.946 20.2793 110.373 20.5495 110.021 21.0898C109.67 21.6237 109.494 22.4342 109.494 23.5215ZM117.043 23.5215C117.043 25.2988 116.574 26.6888 115.637 27.6914C114.699 28.694 113.394 29.1953 111.721 29.1953C110.673 29.1953 109.748 28.9674 108.947 28.5117C108.146 28.0495 107.531 27.3887 107.102 26.5293C106.672 25.6699 106.457 24.6673 106.457 23.5215C106.457 21.7376 106.923 20.3509 107.854 19.3613C108.785 18.3717 110.093 17.877 111.779 17.877C112.827 17.877 113.752 18.1048 114.553 18.5605C115.354 19.0163 115.969 19.6706 116.398 20.5234C116.828 21.3763 117.043 22.3757 117.043 23.5215ZM127.121 25.7578C127.121 26.8776 126.73 27.7305 125.949 28.3164C125.174 28.9023 124.012 29.1953 122.463 29.1953C121.669 29.1953 120.992 29.14 120.432 29.0293C119.872 28.9251 119.348 28.7689 118.859 28.5605V26.0996C119.413 26.36 120.035 26.5781 120.725 26.7539C121.421 26.9297 122.033 27.0176 122.561 27.0176C123.641 27.0176 124.182 26.7051 124.182 26.0801C124.182 25.8457 124.11 25.6569 123.967 25.5137C123.824 25.3639 123.576 25.1979 123.225 25.0156C122.873 24.8268 122.404 24.6087 121.818 24.3613C120.979 24.0098 120.36 23.6842 119.963 23.3848C119.572 23.0853 119.286 22.7435 119.104 22.3594C118.928 21.9688 118.84 21.4902 118.84 20.9238C118.84 19.9538 119.214 19.2051 119.963 18.6777C120.718 18.1439 121.786 17.877 123.166 17.877C124.481 17.877 125.76 18.1634 127.004 18.7363L126.105 20.8848C125.559 20.6504 125.048 20.4583 124.572 20.3086C124.097 20.1589 123.612 20.084 123.117 20.084C122.238 20.084 121.799 20.3216 121.799 20.7969C121.799 21.0638 121.939 21.2949 122.219 21.4902C122.505 21.6855 123.127 21.9753 124.084 22.3594C124.937 22.7044 125.562 23.0267 125.959 23.3262C126.356 23.6257 126.649 23.9707 126.838 24.3613C127.027 24.752 127.121 25.2174 127.121 25.7578ZM134.045 26.8223C134.566 26.8223 135.191 26.7083 135.92 26.4805V28.6973C135.178 29.0293 134.266 29.1953 133.186 29.1953C131.994 29.1953 131.125 28.8958 130.578 28.2969C130.038 27.6914 129.768 26.7865 129.768 25.582V20.3184H128.342V19.0586L129.982 18.0625L130.842 15.7578H132.746V18.082H135.803V20.3184H132.746V25.582C132.746 26.0052 132.863 26.3177 133.098 26.5195C133.339 26.7214 133.654 26.8223 134.045 26.8223ZM138.01 15.2598C138.01 14.2897 138.55 13.8047 139.631 13.8047C140.712 13.8047 141.252 14.2897 141.252 15.2598C141.252 15.722 141.115 16.0833 140.842 16.3438C140.575 16.5977 140.171 16.7246 139.631 16.7246C138.55 16.7246 138.01 16.2363 138.01 15.2598ZM141.115 29H138.137V18.082H141.115V29ZM146.848 29L142.688 18.082H145.803L147.912 24.3027C148.146 25.0905 148.293 25.8359 148.352 26.5391H148.41C148.443 25.9141 148.589 25.1686 148.85 24.3027L150.949 18.082H154.064L149.904 29H146.848ZM160.158 19.9961C159.527 19.9961 159.032 20.1979 158.674 20.6016C158.316 20.9987 158.111 21.5651 158.059 22.3008H162.238C162.225 21.5651 162.033 20.9987 161.662 20.6016C161.291 20.1979 160.79 19.9961 160.158 19.9961ZM160.578 29.1953C158.82 29.1953 157.447 28.7103 156.457 27.7402C155.467 26.7702 154.973 25.3965 154.973 23.6191C154.973 21.7897 155.428 20.377 156.34 19.3809C157.258 18.3783 158.524 17.877 160.139 17.877C161.682 17.877 162.883 18.3164 163.742 19.1953C164.602 20.0742 165.031 21.2884 165.031 22.8379V24.2832H157.99C158.023 25.1296 158.273 25.7904 158.742 26.2656C159.211 26.7409 159.868 26.9785 160.715 26.9785C161.372 26.9785 161.994 26.9102 162.58 26.7734C163.166 26.6367 163.778 26.4186 164.416 26.1191V28.4238C163.895 28.6842 163.339 28.8763 162.746 29C162.154 29.1302 161.431 29.1953 160.578 29.1953ZM178.742 17.877C179.146 17.877 179.481 17.9062 179.748 17.9648L179.523 20.7578C179.283 20.6927 178.99 20.6602 178.645 20.6602C177.694 20.6602 176.952 20.9043 176.418 21.3926C175.891 21.8809 175.627 22.5645 175.627 23.4434V29H172.648V18.082H174.904L175.344 19.918H175.49C175.829 19.306 176.285 18.8145 176.857 18.4434C177.437 18.0658 178.065 17.877 178.742 17.877ZM186.252 19.9961C185.62 19.9961 185.126 20.1979 184.768 20.6016C184.41 20.9987 184.204 21.5651 184.152 22.3008H188.332C188.319 21.5651 188.127 20.9987 187.756 20.6016C187.385 20.1979 186.883 19.9961 186.252 19.9961ZM186.672 29.1953C184.914 29.1953 183.54 28.7103 182.551 27.7402C181.561 26.7702 181.066 25.3965 181.066 23.6191C181.066 21.7897 181.522 20.377 182.434 19.3809C183.352 18.3783 184.618 17.877 186.232 17.877C187.775 17.877 188.977 18.3164 189.836 19.1953C190.695 20.0742 191.125 21.2884 191.125 22.8379V24.2832H184.084C184.117 25.1296 184.367 25.7904 184.836 26.2656C185.305 26.7409 185.962 26.9785 186.809 26.9785C187.466 26.9785 188.088 26.9102 188.674 26.7734C189.26 26.6367 189.872 26.4186 190.51 26.1191V28.4238C189.989 28.6842 189.432 28.8763 188.84 29C188.247 29.1302 187.525 29.1953 186.672 29.1953ZM196.145 29L191.984 18.082H195.1L197.209 24.3027C197.443 25.0905 197.59 25.8359 197.648 26.5391H197.707C197.74 25.9141 197.886 25.1686 198.146 24.3027L200.246 18.082H203.361L199.201 29H196.145ZM204.807 15.2598C204.807 14.2897 205.347 13.8047 206.428 13.8047C207.508 13.8047 208.049 14.2897 208.049 15.2598C208.049 15.722 207.912 16.0833 207.639 16.3438C207.372 16.5977 206.968 16.7246 206.428 16.7246C205.347 16.7246 204.807 16.2363 204.807 15.2598ZM207.912 29H204.934V18.082H207.912V29ZM215.568 19.9961C214.937 19.9961 214.442 20.1979 214.084 20.6016C213.726 20.9987 213.521 21.5651 213.469 22.3008H217.648C217.635 21.5651 217.443 20.9987 217.072 20.6016C216.701 20.1979 216.2 19.9961 215.568 19.9961ZM215.988 29.1953C214.23 29.1953 212.857 28.7103 211.867 27.7402C210.878 26.7702 210.383 25.3965 210.383 23.6191C210.383 21.7897 210.839 20.377 211.75 19.3809C212.668 18.3783 213.934 17.877 215.549 17.877C217.092 17.877 218.293 18.3164 219.152 19.1953C220.012 20.0742 220.441 21.2884 220.441 22.8379V24.2832H213.4C213.433 25.1296 213.684 25.7904 214.152 26.2656C214.621 26.7409 215.279 26.9785 216.125 26.9785C216.783 26.9785 217.404 26.9102 217.99 26.7734C218.576 26.6367 219.188 26.4186 219.826 26.1191V28.4238C219.305 28.6842 218.749 28.8763 218.156 29C217.564 29.1302 216.841 29.1953 215.988 29.1953ZM231.838 29L230.998 25.1816L229.865 20.3574H229.797L227.805 29H224.602L221.496 18.082H224.465L225.725 22.916C225.926 23.7819 226.132 24.9766 226.34 26.5H226.398C226.424 26.0052 226.538 25.2207 226.74 24.1465L226.896 23.3164L228.244 18.082H231.525L232.805 23.3164C232.831 23.4596 232.87 23.6712 232.922 23.9512C232.98 24.2311 233.036 24.5306 233.088 24.8496C233.14 25.1621 233.186 25.4714 233.225 25.7773C233.27 26.0768 233.296 26.3177 233.303 26.5H233.361C233.42 26.0312 233.524 25.39 233.674 24.5762C233.824 23.7559 233.931 23.2025 233.996 22.916L235.305 18.082H238.225L235.08 29H231.838ZM247.609 25.7578C247.609 26.8776 247.219 27.7305 246.438 28.3164C245.663 28.9023 244.501 29.1953 242.951 29.1953C242.157 29.1953 241.48 29.14 240.92 29.0293C240.36 28.9251 239.836 28.7689 239.348 28.5605V26.0996C239.901 26.36 240.523 26.5781 241.213 26.7539C241.91 26.9297 242.521 27.0176 243.049 27.0176C244.13 27.0176 244.67 26.7051 244.67 26.0801C244.67 25.8457 244.598 25.6569 244.455 25.5137C244.312 25.3639 244.064 25.1979 243.713 25.0156C243.361 24.8268 242.893 24.6087 242.307 24.3613C241.467 24.0098 240.848 23.6842 240.451 23.3848C240.061 23.0853 239.774 22.7435 239.592 22.3594C239.416 21.9688 239.328 21.4902 239.328 20.9238C239.328 19.9538 239.702 19.2051 240.451 18.6777C241.206 18.1439 242.274 17.877 243.654 17.877C244.969 17.877 246.249 18.1634 247.492 18.7363L246.594 20.8848C246.047 20.6504 245.536 20.4583 245.061 20.3086C244.585 20.1589 244.1 20.084 243.605 20.084C242.727 20.084 242.287 20.3216 242.287 20.7969C242.287 21.0638 242.427 21.2949 242.707 21.4902C242.993 21.6855 243.615 21.9753 244.572 22.3594C245.425 22.7044 246.05 23.0267 246.447 23.3262C246.844 23.6257 247.137 23.9707 247.326 24.3613C247.515 24.752 247.609 25.2174 247.609 25.7578ZM261.164 20.3184H258.586V29H255.607V20.3184H253.967V18.8828L255.607 18.082V17.2812C255.607 16.0378 255.913 15.1296 256.525 14.5566C257.137 13.9837 258.117 13.6973 259.465 13.6973C260.493 13.6973 261.408 13.8503 262.209 14.1562L261.447 16.3438C260.848 16.1549 260.295 16.0605 259.787 16.0605C259.364 16.0605 259.058 16.1875 258.869 16.4414C258.68 16.6888 258.586 17.0078 258.586 17.3984V18.082H261.164V20.3184ZM268.977 17.877C269.38 17.877 269.715 17.9062 269.982 17.9648L269.758 20.7578C269.517 20.6927 269.224 20.6602 268.879 20.6602C267.928 20.6602 267.186 20.9043 266.652 21.3926C266.125 21.8809 265.861 22.5645 265.861 23.4434V29H262.883V18.082H265.139L265.578 19.918H265.725C266.063 19.306 266.519 18.8145 267.092 18.4434C267.671 18.0658 268.299 17.877 268.977 17.877ZM274.338 23.5215C274.338 24.6022 274.514 25.4193 274.865 25.9727C275.223 26.526 275.803 26.8027 276.604 26.8027C277.398 26.8027 277.967 26.5293 278.312 25.9824C278.664 25.429 278.84 24.6087 278.84 23.5215C278.84 22.4408 278.664 21.6302 278.312 21.0898C277.961 20.5495 277.385 20.2793 276.584 20.2793C275.79 20.2793 275.217 20.5495 274.865 21.0898C274.514 21.6237 274.338 22.4342 274.338 23.5215ZM281.887 23.5215C281.887 25.2988 281.418 26.6888 280.48 27.6914C279.543 28.694 278.238 29.1953 276.564 29.1953C275.516 29.1953 274.592 28.9674 273.791 28.5117C272.99 28.0495 272.375 27.3887 271.945 26.5293C271.516 25.6699 271.301 24.6673 271.301 23.5215C271.301 21.7376 271.766 20.3509 272.697 19.3613C273.628 18.3717 274.937 17.877 276.623 17.877C277.671 17.877 278.596 18.1048 279.396 18.5605C280.197 19.0163 280.812 19.6706 281.242 20.5234C281.672 21.3763 281.887 22.3757 281.887 23.5215ZM294.123 29H291.145V22.623C291.145 21.8353 291.011 21.2461 290.744 20.8555C290.484 20.4583 290.07 20.2598 289.504 20.2598C288.742 20.2598 288.189 20.5397 287.844 21.0996C287.499 21.6595 287.326 22.5807 287.326 23.8633V29H284.348V18.082H286.623L287.023 19.4785H287.189C287.482 18.9772 287.906 18.5866 288.459 18.3066C289.012 18.0202 289.647 17.877 290.363 17.877C291.997 17.877 293.104 18.4108 293.684 19.4785H293.947C294.24 18.9707 294.67 18.5768 295.236 18.2969C295.809 18.0169 296.454 17.877 297.17 17.877C298.407 17.877 299.341 18.196 299.973 18.834C300.611 19.4655 300.93 20.4811 300.93 21.8809V29H297.941V22.623C297.941 21.8353 297.808 21.2461 297.541 20.8555C297.281 20.4583 296.867 20.2598 296.301 20.2598C295.572 20.2598 295.025 20.5202 294.66 21.041C294.302 21.5618 294.123 22.3887 294.123 23.5215V29ZM98.9961 56.1953C95.5977 56.1953 93.8984 54.3301 93.8984 50.5996C93.8984 48.7441 94.3607 47.3281 95.2852 46.3516C96.2096 45.3685 97.5345 44.877 99.2598 44.877C100.523 44.877 101.656 45.1243 102.658 45.6191L101.779 47.9238C101.311 47.735 100.874 47.582 100.471 47.4648C100.067 47.3411 99.6634 47.2793 99.2598 47.2793C97.7103 47.2793 96.9355 48.3796 96.9355 50.5801C96.9355 52.7155 97.7103 53.7832 99.2598 53.7832C99.8327 53.7832 100.363 53.7083 100.852 53.5586C101.34 53.4023 101.828 53.1615 102.316 52.8359V55.3848C101.835 55.6908 101.346 55.9023 100.852 56.0195C100.363 56.1367 99.7448 56.1953 98.9961 56.1953ZM107.229 50.5215C107.229 51.6022 107.404 52.4193 107.756 52.9727C108.114 53.526 108.693 53.8027 109.494 53.8027C110.288 53.8027 110.858 53.5293 111.203 52.9824C111.555 52.429 111.73 51.6087 111.73 50.5215C111.73 49.4408 111.555 48.6302 111.203 48.0898C110.852 47.5495 110.275 47.2793 109.475 47.2793C108.68 47.2793 108.107 47.5495 107.756 48.0898C107.404 48.6237 107.229 49.4342 107.229 50.5215ZM114.777 50.5215C114.777 52.2988 114.309 53.6888 113.371 54.6914C112.434 55.694 111.128 56.1953 109.455 56.1953C108.407 56.1953 107.482 55.9674 106.682 55.5117C105.881 55.0495 105.266 54.3887 104.836 53.5293C104.406 52.6699 104.191 51.6673 104.191 50.5215C104.191 48.7376 104.657 47.3509 105.588 46.3613C106.519 45.3717 107.827 44.877 109.514 44.877C110.562 44.877 111.486 45.1048 112.287 45.5605C113.088 46.0163 113.703 46.6706 114.133 47.5234C114.562 48.3763 114.777 49.3757 114.777 50.5215ZM127.014 56H124.035V49.623C124.035 48.8353 123.902 48.2461 123.635 47.8555C123.374 47.4583 122.961 47.2598 122.395 47.2598C121.633 47.2598 121.079 47.5397 120.734 48.0996C120.389 48.6595 120.217 49.5807 120.217 50.8633V56H117.238V45.082H119.514L119.914 46.4785H120.08C120.373 45.9772 120.796 45.5866 121.35 45.3066C121.903 45.0202 122.538 44.877 123.254 44.877C124.888 44.877 125.995 45.4108 126.574 46.4785H126.838C127.131 45.9707 127.561 45.5768 128.127 45.2969C128.7 45.0169 129.344 44.877 130.061 44.877C131.298 44.877 132.232 45.196 132.863 45.834C133.501 46.4655 133.82 47.4811 133.82 48.8809V56H130.832V49.623C130.832 48.8353 130.699 48.2461 130.432 47.8555C130.171 47.4583 129.758 47.2598 129.191 47.2598C128.462 47.2598 127.915 47.5202 127.551 48.041C127.193 48.5618 127.014 49.3887 127.014 50.5215V56ZM146.662 56H143.684V49.623C143.684 48.8353 143.55 48.2461 143.283 47.8555C143.023 47.4583 142.609 47.2598 142.043 47.2598C141.281 47.2598 140.728 47.5397 140.383 48.0996C140.038 48.6595 139.865 49.5807 139.865 50.8633V56H136.887V45.082H139.162L139.562 46.4785H139.729C140.021 45.9772 140.445 45.5866 140.998 45.3066C141.551 45.0202 142.186 44.877 142.902 44.877C144.536 44.877 145.643 45.4108 146.223 46.4785H146.486C146.779 45.9707 147.209 45.5768 147.775 45.2969C148.348 45.0169 148.993 44.877 149.709 44.877C150.946 44.877 151.88 45.196 152.512 45.834C153.15 46.4655 153.469 47.4811 153.469 48.8809V56H150.48V49.623C150.48 48.8353 150.347 48.2461 150.08 47.8555C149.82 47.4583 149.406 47.2598 148.84 47.2598C148.111 47.2598 147.564 47.5202 147.199 48.041C146.841 48.5618 146.662 49.3887 146.662 50.5215V56ZM164.27 56L163.869 54.6035H163.713C163.394 55.1113 162.941 55.5052 162.355 55.7852C161.77 56.0586 161.102 56.1953 160.354 56.1953C159.071 56.1953 158.104 55.8535 157.453 55.1699C156.802 54.4798 156.477 53.4902 156.477 52.2012V45.082H159.455V51.459C159.455 52.2467 159.595 52.8392 159.875 53.2363C160.155 53.627 160.601 53.8223 161.213 53.8223C162.046 53.8223 162.648 53.5456 163.02 52.9922C163.391 52.4323 163.576 51.5078 163.576 50.2188V45.082H166.555V56H164.27ZM179.758 56H176.779V49.623C176.779 48.8353 176.639 48.2461 176.359 47.8555C176.079 47.4583 175.633 47.2598 175.021 47.2598C174.188 47.2598 173.586 47.5397 173.215 48.0996C172.844 48.653 172.658 49.5742 172.658 50.8633V56H169.68V45.082H171.955L172.355 46.4785H172.521C172.854 45.9512 173.309 45.554 173.889 45.2871C174.475 45.0137 175.139 44.877 175.881 44.877C177.15 44.877 178.114 45.222 178.771 45.9121C179.429 46.5957 179.758 47.5853 179.758 48.8809V56ZM182.697 42.2598C182.697 41.2897 183.238 40.8047 184.318 40.8047C185.399 40.8047 185.939 41.2897 185.939 42.2598C185.939 42.722 185.803 43.0833 185.529 43.3438C185.262 43.5977 184.859 43.7246 184.318 43.7246C183.238 43.7246 182.697 43.2363 182.697 42.2598ZM185.803 56H182.824V45.082H185.803V56ZM193.537 53.8223C194.058 53.8223 194.683 53.7083 195.412 53.4805V55.6973C194.67 56.0293 193.758 56.1953 192.678 56.1953C191.486 56.1953 190.617 55.8958 190.07 55.2969C189.53 54.6914 189.26 53.7865 189.26 52.582V47.3184H187.834V46.0586L189.475 45.0625L190.334 42.7578H192.238V45.082H195.295V47.3184H192.238V52.582C192.238 53.0052 192.355 53.3177 192.59 53.5195C192.831 53.7214 193.146 53.8223 193.537 53.8223ZM196.066 45.082H199.328L201.389 51.2246C201.564 51.7585 201.685 52.39 201.75 53.1191H201.809C201.88 52.4486 202.02 51.8171 202.229 51.2246L204.25 45.082H207.443L202.824 57.3965C202.401 58.5358 201.796 59.3887 201.008 59.9551C200.227 60.5215 199.312 60.8047 198.264 60.8047C197.749 60.8047 197.245 60.7493 196.75 60.6387V58.2754C197.108 58.36 197.499 58.4023 197.922 58.4023C198.449 58.4023 198.908 58.2396 199.299 57.9141C199.696 57.5951 200.005 57.11 200.227 56.459L200.402 55.9219L196.066 45.082ZM223.986 56H221.008V49.623C221.008 48.8353 220.874 48.2461 220.607 47.8555C220.347 47.4583 219.934 47.2598 219.367 47.2598C218.605 47.2598 218.052 47.5397 217.707 48.0996C217.362 48.6595 217.189 49.5807 217.189 50.8633V56H214.211V45.082H216.486L216.887 46.4785H217.053C217.346 45.9772 217.769 45.5866 218.322 45.3066C218.876 45.0202 219.51 44.877 220.227 44.877C221.861 44.877 222.967 45.4108 223.547 46.4785H223.811C224.104 45.9707 224.533 45.5768 225.1 45.2969C225.673 45.0169 226.317 44.877 227.033 44.877C228.27 44.877 229.204 45.196 229.836 45.834C230.474 46.4655 230.793 47.4811 230.793 48.8809V56H227.805V49.623C227.805 48.8353 227.671 48.2461 227.404 47.8555C227.144 47.4583 226.73 47.2598 226.164 47.2598C225.435 47.2598 224.888 47.5202 224.523 48.041C224.165 48.5618 223.986 49.3887 223.986 50.5215V56ZM238.381 46.9961C237.749 46.9961 237.255 47.1979 236.896 47.6016C236.538 47.9987 236.333 48.5651 236.281 49.3008H240.461C240.448 48.5651 240.256 47.9987 239.885 47.6016C239.514 47.1979 239.012 46.9961 238.381 46.9961ZM238.801 56.1953C237.043 56.1953 235.669 55.7103 234.68 54.7402C233.69 53.7702 233.195 52.3965 233.195 50.6191C233.195 48.7897 233.651 47.377 234.562 46.3809C235.48 45.3783 236.747 44.877 238.361 44.877C239.904 44.877 241.105 45.3164 241.965 46.1953C242.824 47.0742 243.254 48.2884 243.254 49.8379V51.2832H236.213C236.245 52.1296 236.496 52.7904 236.965 53.2656C237.434 53.7409 238.091 53.9785 238.938 53.9785C239.595 53.9785 240.217 53.9102 240.803 53.7734C241.389 53.6367 242.001 53.4186 242.639 53.1191V55.4238C242.118 55.6842 241.561 55.8763 240.969 56C240.376 56.1302 239.654 56.1953 238.801 56.1953ZM255.451 56H252.473V49.623C252.473 48.8353 252.339 48.2461 252.072 47.8555C251.812 47.4583 251.398 47.2598 250.832 47.2598C250.07 47.2598 249.517 47.5397 249.172 48.0996C248.827 48.6595 248.654 49.5807 248.654 50.8633V56H245.676V45.082H247.951L248.352 46.4785H248.518C248.811 45.9772 249.234 45.5866 249.787 45.3066C250.34 45.0202 250.975 44.877 251.691 44.877C253.326 44.877 254.432 45.4108 255.012 46.4785H255.275C255.568 45.9707 255.998 45.5768 256.564 45.2969C257.137 45.0169 257.782 44.877 258.498 44.877C259.735 44.877 260.669 45.196 261.301 45.834C261.939 46.4655 262.258 47.4811 262.258 48.8809V56H259.27V49.623C259.27 48.8353 259.136 48.2461 258.869 47.8555C258.609 47.4583 258.195 47.2598 257.629 47.2598C256.9 47.2598 256.353 47.5202 255.988 48.041C255.63 48.5618 255.451 49.3887 255.451 50.5215V56ZM271.398 44.877C272.688 44.877 273.697 45.3815 274.426 46.3906C275.155 47.3932 275.52 48.7702 275.52 50.5215C275.52 52.3249 275.142 53.7214 274.387 54.7109C273.638 55.7005 272.616 56.1953 271.32 56.1953C270.038 56.1953 269.032 55.7298 268.303 54.7988H268.098L267.6 56H265.324V40.8047H268.303V44.3398C268.303 44.7891 268.264 45.5085 268.186 46.498H268.303C268.999 45.4173 270.031 44.877 271.398 44.877ZM270.441 47.2598C269.706 47.2598 269.169 47.4876 268.83 47.9434C268.492 48.3926 268.316 49.138 268.303 50.1797V50.502C268.303 51.6738 268.475 52.5137 268.82 53.0215C269.172 53.5293 269.725 53.7832 270.48 53.7832C271.092 53.7832 271.577 53.5033 271.936 52.9434C272.3 52.377 272.482 51.5566 272.482 50.4824C272.482 49.4082 272.3 48.6042 271.936 48.0703C271.571 47.5299 271.073 47.2598 270.441 47.2598ZM282.502 46.9961C281.87 46.9961 281.376 47.1979 281.018 47.6016C280.66 47.9987 280.454 48.5651 280.402 49.3008H284.582C284.569 48.5651 284.377 47.9987 284.006 47.6016C283.635 47.1979 283.133 46.9961 282.502 46.9961ZM282.922 56.1953C281.164 56.1953 279.79 55.7103 278.801 54.7402C277.811 53.7702 277.316 52.3965 277.316 50.6191C277.316 48.7897 277.772 47.377 278.684 46.3809C279.602 45.3783 280.868 44.877 282.482 44.877C284.025 44.877 285.227 45.3164 286.086 46.1953C286.945 47.0742 287.375 48.2884 287.375 49.8379V51.2832H280.334C280.367 52.1296 280.617 52.7904 281.086 53.2656C281.555 53.7409 282.212 53.9785 283.059 53.9785C283.716 53.9785 284.338 53.9102 284.924 53.7734C285.51 53.6367 286.122 53.4186 286.76 53.1191V55.4238C286.239 55.6842 285.682 55.8763 285.09 56C284.497 56.1302 283.775 56.1953 282.922 56.1953ZM295.891 44.877C296.294 44.877 296.63 44.9062 296.896 44.9648L296.672 47.7578C296.431 47.6927 296.138 47.6602 295.793 47.6602C294.842 47.6602 294.1 47.9043 293.566 48.3926C293.039 48.8809 292.775 49.5645 292.775 50.4434V56H289.797V45.082H292.053L292.492 46.918H292.639C292.977 46.306 293.433 45.8145 294.006 45.4434C294.585 45.0658 295.214 44.877 295.891 44.877ZM306.496 52.7578C306.496 53.8776 306.105 54.7305 305.324 55.3164C304.549 55.9023 303.387 56.1953 301.838 56.1953C301.044 56.1953 300.367 56.14 299.807 56.0293C299.247 55.9251 298.723 55.7689 298.234 55.5605V53.0996C298.788 53.36 299.41 53.5781 300.1 53.7539C300.796 53.9297 301.408 54.0176 301.936 54.0176C303.016 54.0176 303.557 53.7051 303.557 53.0801C303.557 52.8457 303.485 52.6569 303.342 52.5137C303.199 52.3639 302.951 52.1979 302.6 52.0156C302.248 51.8268 301.779 51.6087 301.193 51.3613C300.354 51.0098 299.735 50.6842 299.338 50.3848C298.947 50.0853 298.661 49.7435 298.479 49.3594C298.303 48.9688 298.215 48.4902 298.215 47.9238C298.215 46.9538 298.589 46.2051 299.338 45.6777C300.093 45.1439 301.161 44.877 302.541 44.877C303.856 44.877 305.135 45.1634 306.379 45.7363L305.48 47.8848C304.934 47.6504 304.423 47.4583 303.947 47.3086C303.472 47.1589 302.987 47.084 302.492 47.084C301.613 47.084 301.174 47.3216 301.174 47.7969C301.174 48.0638 301.314 48.2949 301.594 48.4902C301.88 48.6855 302.502 48.9753 303.459 49.3594C304.312 49.7044 304.937 50.0267 305.334 50.3262C305.731 50.6257 306.024 50.9707 306.213 51.3613C306.402 51.752 306.496 52.2174 306.496 52.7578Z" fill="black"/>
<defs>
<filter id="filter0_d_114_3274" x="0" y="0" width="78" height="78" filterUnits="userSpaceOnUse" color-interpolation-filters="sRGB">
<feFlood flood-opacity="0" result="BackgroundImageFix"/>
<feColorMatrix in="SourceAlpha" type="matrix" values="0 0 0 0 0 0 0 0 0 0 0 0 0 0 0 0 0 0 127 0" result="hardAlpha"/>
<feOffset dx="4" dy="4"/>
<feGaussianBlur stdDeviation="2"/>
<feComposite in2="hardAlpha" operator="out"/>
<feColorMatrix type="matrix" values="0 0 0 0 0 0 0 0 0 0 0 0 0 0 0 0 0 0 0.12 0"/>
<feBlend mode="normal" in2="BackgroundImageFix" result="effect1_dropShadow_114_3274"/>
<feBlend mode="normal" in="SourceGraphic" in2="effect1_dropShadow_114_3274" result="shape"/>
</filter>
</defs>
</svg>
