<svg width="116" height="22" viewBox="0 0 116 22" fill="none" xmlns="http://www.w3.org/2000/svg">
<path fill-rule="evenodd" clip-rule="evenodd" d="M11.4744 16.3571L6.07834 19.1603L7.1089 13.223L2.74339 9.01817L8.77637 8.15193L11.4744 2.75L14.1724 8.15193L20.2054 9.01817L15.8399 13.223L16.8705 19.1603L11.4744 16.3571Z" fill="black" stroke="black" stroke-linecap="round" stroke-linejoin="round"/>
<path fill-rule="evenodd" clip-rule="evenodd" d="M34.7508 16.3571L29.3547 19.1603L30.3853 13.223L26.0198 9.01817L32.0527 8.15193L34.7508 2.75L37.4488 8.15193L43.4818 9.01817L39.1163 13.223L40.1468 19.1603L34.7508 16.3571Z" fill="black" stroke="black" stroke-linecap="round" stroke-linejoin="round"/>
<path fill-rule="evenodd" clip-rule="evenodd" d="M58.027 16.3571L52.631 19.1603L53.6615 13.223L49.296 9.01817L55.329 8.15193L58.027 2.75L60.7251 8.15193L66.758 9.01817L62.3925 13.223L63.4231 19.1603L58.027 16.3571Z" fill="black" stroke="black" stroke-linecap="round" stroke-linejoin="round"/>
<path fill-rule="evenodd" clip-rule="evenodd" d="M81.3033 16.3571L75.9072 19.1603L76.9378 13.223L72.5722 9.01817L78.6052 8.15193L81.3033 2.75L84.0013 8.15193L90.0343 9.01817L85.6688 13.223L86.6993 19.1603L81.3033 16.3571Z" fill="black" stroke="black" stroke-linecap="round" stroke-linejoin="round"/>
<path fill-rule="evenodd" clip-rule="evenodd" d="M104.58 16.3571L99.1836 19.1603L100.214 13.223L95.8486 9.01817L101.882 8.15193L104.58 2.75L107.278 8.15193L113.311 9.01817L108.945 13.223L109.976 19.1603L104.58 16.3571Z" stroke="black" stroke-linecap="round" stroke-linejoin="round"/>
</svg>
